<?xml version="1.0" standalone="no"?>
<!DOCTYPE svg PUBLIC "-//W3C//DTD SVG 20010904//EN"
 "http://www.w3.org/TR/2001/REC-SVG-20010904/DTD/svg10.dtd">
<svg version="1.0" xmlns="http://www.w3.org/2000/svg"
 width="520.000000pt" height="520.000000pt" viewBox="0 0 520.000000 520.000000"
 preserveAspectRatio="xMidYMid meet">
<metadata>
Created by potrace 1.11, written by Peter Selinger 2001-2013
</metadata>
<g transform="translate(0.000000,520.000000) scale(0.100000,-0.100000)"
fill="#000000" stroke="none">
<path d="M70 2635 l0 -1345 295 0 295 0 0 851 0 851 453 -594 c248 -326 540
-709 647 -850 l195 -257 253 -1 252 0 0 1345 0 1345 -290 0 -290 0 0 -827 c-1
-784 -2 -827 -18 -807 -9 12 -293 384 -631 828 l-614 806 -273 0 -274 0 0
-1345z"/>
<path d="M3110 2635 l0 -1345 295 0 295 0 0 520 0 520 640 0 640 0 0 270 0
270 -640 0 -640 0 0 285 0 285 725 0 725 0 0 270 0 270 -1020 0 -1020 0 0
-1345z"/>
</g>
</svg>
